<?xml version="1.0" encoding="UTF-8"?>
<svg version="1.1" xmlns="http://www.w3.org/2000/svg" width="178" height="77">
<path d="M0 0 C58.74 0 117.48 0 178 0 C178 25.41 178 50.82 178 77 C119.26 77 60.52 77 0 77 C0 51.59 0 26.18 0 0 Z " fill="#FCFBFC" transform="translate(0,0)"/>
<path d="M0 0 C4.20496043 3.62665585 6.54895712 8.07835376 9.1875 12.875 C9.63802734 13.66519531 10.08855469 14.45539062 10.55273438 15.26953125 C12.90951164 19.51667709 14.59558486 23.06772124 15 28 C15.33 28 15.66 28 16 28 C16.33 25.03 16.66 22.06 17 19 C18.99954746 18.95745644 21.00041636 18.95919217 23 19 C25.05922402 21.05922402 24.41427579 25.21708124 24.5625 28.0625 C24.60568359 28.82111328 24.64886719 29.57972656 24.69335938 30.36132812 C24.79973633 32.24065438 24.90039934 34.12030244 25 36 C25.18175781 34.41058594 25.18175781 34.41058594 25.3671875 32.7890625 C25.53600752 31.40098676 25.70530308 30.01296881 25.875 28.625 C25.95363281 27.92632812 26.03226563 27.22765625 26.11328125 26.5078125 C26.7734375 21.2265625 26.7734375 21.2265625 29 19 C30.32 19 31.64 19 33 19 C33 23.95 33 28.9 33 34 C38.94 34 44.88 34 51 34 C51 35.65 51 37.3 51 39 C43.41 39 35.82 39 28 39 C27.67 40.32 27.34 41.64 27 43 C27.99 43 28.98 43 30 43 C30 43.66 30 44.32 30 45 C29.01 45 28.02 45 27 45 C27 47.31 27 49.62 27 52 C26.34 52 25.68 52 25 52 C25 50.02 25 48.04 25 46 C23.02 46 21.04 46 19 46 C19 47.65 19 49.3 19 51 C18.01 51 17.02 51 16 51 C15.505 48.525 15.505 48.525 15 46 C14.67 47.32 14.34 48.64 14 50 C10.59437148 50.77842938 7.49234244 51.09978121 4 51 C4 48.03 4 45.06 4 42 C1.64632287 41.3121764 1.64632287 41.3121764 -1 41 C-4.3566285 43.23775234 -4.57996014 43.93320048 -5.6875 47.625 C-5.93886719 48.44226562 -6.19023438 49.25953125 -6.44921875 50.1015625 C-6.63097656 50.72804687 -6.81273438 51.35453125 -7 52 C-8.98 52 -10.96 52 -13 52 C-13 49.03 -13 46.06 -13 43 C-11.02 42.505 -11.02 42.505 -9 42 C-6.7927642 40.51199628 -6.7927642 40.51199628 -5 39 C-5.78375 38.4225 -6.5675 37.845 -7.375 37.25 C-10.42492504 34.63577853 -11.69414849 32.74642564 -12.38647461 28.79321289 C-12.62825543 21.44111774 -10.29638973 16.65139579 -6.5625 10.4375 C-6.04623047 9.53708984 -5.52996094 8.63667969 -4.99804688 7.70898438 C-1.29471261 1.29471261 -1.29471261 1.29471261 0 0 Z " fill="#F9F0E6" transform="translate(110,7)"/>
<path d="M0 0 C1.03125 0.02255859 2.0625 0.04511719 3.125 0.06835938 C5.66814065 0.12722837 8.20833113 0.20939935 10.75 0.3125 C10.75 1.9625 10.75 3.6125 10.75 5.3125 C4.15 5.6425 -2.45 5.9725 -9.25 6.3125 C-9.25 8.2925 -9.25 10.2725 -9.25 12.3125 C-7.43884044 14.12365956 -4.63721773 13.69449448 -2.1875 13.875 C-1.08277344 13.95878906 0.02195312 14.04257812 1.16015625 14.12890625 C2.44212891 14.21978516 2.44212891 14.21978516 3.75 14.3125 C3.75 13.6525 3.75 12.9925 3.75 12.3125 C1.11 12.3125 -1.53 12.3125 -4.25 12.3125 C-3.92 10.6625 -3.59 9.0125 -3.25 7.3125 C1.37 7.3125 5.99 7.3125 10.75 7.3125 C10.84765625 15.80859375 10.84765625 15.80859375 10.75 18.3125 C8.43432002 20.62817998 3.10440568 19.68713145 0 19.75 C-0.9075 19.79576172 -1.815 19.84152344 -2.75 19.88867188 C-9.27702862 19.99840993 -9.27702862 19.99840993 -11.98608398 18.08862305 C-14.35333288 15.40990514 -15.93844327 12.85790413 -15.8125 9.25 C-14.38616733 -0.73432868 -8.59908208 -0.35465757 0 0 Z " fill="#5F2D64" transform="translate(25.25,26.6875)"/>
<path d="M0 0 C1.98 0 3.96 0 6 0 C8.1171875 2.625 8.1171875 2.625 9.875 6 C10.47054687 7.11375 11.06609375 8.2275 11.6796875 9.375 C12.33324219 10.674375 12.33324219 10.674375 13 12 C16.0004527 9.25895243 17.58630559 6.22666806 19.42578125 2.64453125 C19.94527344 2.10183594 20.46476562 1.55914063 21 1 C22.98 1 24.96 1 27 1 C27 7.27 27 13.54 27 20 C25.35 20 23.7 20 22 20 C21.67 17.36 21.34 14.72 21 12 C19.68 14.31 18.36 16.62 17 19 C14.69 19 12.38 19 10 19 C8.68 16.69 7.36 14.38 6 12 C5.67 14.64 5.34 17.28 5 20 C3.35 20 1.7 20 0 20 C0 13.4 0 6.8 0 0 Z " fill="#5D2963" transform="translate(68,26)"/>
<path d="M0 0 C2.73694796 0.09728045 3.80177481 0.32100341 5.76708984 2.26757812 C7.23531626 4.47432918 8.47322132 6.710495 9.6796875 9.0703125 C10.12054688 9.864375 10.56140625 10.6584375 11.015625 11.4765625 C14.1796875 17.27406832 14.1796875 17.27406832 14.1796875 19.6953125 C12.1996875 19.6953125 10.2196875 19.6953125 8.1796875 19.6953125 C7.8496875 19.0353125 7.5196875 18.3753125 7.1796875 17.6953125 C4.63027377 17.38289879 2.17607237 17.18227829 -0.3828125 17.0703125 C-1.09373047 17.03164063 -1.80464844 16.99296875 -2.53710938 16.953125 C-4.29773675 16.85859467 -6.05898978 16.77585433 -7.8203125 16.6953125 C-8.1503125 17.6853125 -8.4803125 18.6753125 -8.8203125 19.6953125 C-10.8003125 19.6953125 -12.7803125 19.6953125 -14.8203125 19.6953125 C-5.92448974 1.07828136 -5.92448974 1.07828136 0 0 Z " fill="#5C2863" transform="translate(51.8203125,26.3046875)"/>
<path d="M0 0 C3 2 3 2 3.5390625 4.1796875 C3.7796247 11.72459302 1.59570659 15.92327822 -2.43359375 22.19921875 C-4.68161244 26.21874344 -4.72364473 28.49732166 -4 33 C-2.9818126 35.76365152 -2.09482585 36.90517415 0 39 C-3.4069998 39.38937141 -4.76368298 39.15388085 -7.6875 37.25 C-11.09373939 33.93582113 -12.30892762 31.15126935 -12.46484375 26.41015625 C-12.33497048 20.14980513 -9.72626933 15.70260806 -6.5625 10.4375 C-6.04623047 9.53708984 -5.52996094 8.63667969 -4.99804688 7.70898438 C-1.29471261 1.29471261 -1.29471261 1.29471261 0 0 Z " fill="#58205C" transform="translate(110,7)"/>
<path d="M0 0 C5.73228848 6.84830924 12.38930121 15.69208627 11.5625 25.0625 C10.31358664 29.36431267 7.55293805 31.94948308 3.875 34.4375 C2 35 2 35 -1 34 C-0.505 33.525625 -0.01 33.05125 0.5 32.5625 C2.72892492 28.75475326 2.69747735 25.31429287 2 21 C1.05168337 19.0734284 1.05168337 19.0734284 -0.125 17.25 C-3.31788516 11.75734441 -1.32616877 5.87815346 0 0 Z " fill="#F4A034" transform="translate(113,11)"/>
<path d="M0 0 C1.32 0 2.64 0 4 0 C4 4.95 4 9.9 4 15 C9.94 15 15.88 15 22 15 C22 16.65 22 18.3 22 20 C14.41 20 6.82 20 -1 20 C-1.0309375 15.3284375 -1.0309375 15.3284375 -1.0625 10.5625 C-1.071604 9.57967041 -1.08070801 8.59684082 -1.09008789 7.58422852 C-1.09258545 6.81522217 -1.09508301 6.04621582 -1.09765625 5.25390625 C-1.10551147 4.06776733 -1.10551147 4.06776733 -1.11352539 2.85766602 C-1 1 -1 1 0 0 Z " fill="#F0862A" transform="translate(139,26)"/>
<path d="M0 0 C0.66 0 1.32 0 2 0 C5.36242013 5.7791596 7.08370605 10.27309293 6 17 C4.8125 19.5625 4.8125 19.5625 3 21 C0.5 21.5625 0.5 21.5625 -2 21 C-4.93791796 17.75815949 -5.57871867 14.48346114 -5.4296875 10.13671875 C-4.65092705 6.2641554 -2.59089476 2.95204979 0 0 Z " fill="#F8F5F3" transform="translate(110,24)"/>
<path d="M0 0 C2.9375 1.6875 2.9375 1.6875 5 4 C5.3125 7.75 5.3125 7.75 5 11 C2.36 11 -0.28 11 -3 11 C-3 8.03 -3 5.06 -3 2 C-5.35367713 1.3121764 -5.35367713 1.3121764 -8 1 C-11.3566285 3.23775234 -11.57996014 3.93320048 -12.6875 7.625 C-12.93886719 8.44226562 -13.19023438 9.25953125 -13.44921875 10.1015625 C-13.63097656 10.72804688 -13.81273438 11.35453125 -14 12 C-15.98 12 -17.96 12 -20 12 C-20 9.03 -20 6.06 -20 3 C-18.68 2.67 -17.36 2.34 -16 2 C-14.55458822 1.2866452 -13.11731905 0.55661542 -11.6875 -0.1875 C-7.13607059 -2.24274317 -4.64459837 -2.14366078 0 0 Z " fill="#F1EBF3" transform="translate(117,47)"/>
<path d="M0 0 C4.62 0 9.24 0 14 0 C14.09765625 8.49609375 14.09765625 8.49609375 14 11 C13 12 13 12 11.05053711 12.11352539 C10.2178833 12.10828857 9.38522949 12.10305176 8.52734375 12.09765625 C7.62822266 12.09443359 6.72910156 12.09121094 5.80273438 12.08789062 C4.85720703 12.07951172 3.91167969 12.07113281 2.9375 12.0625 C1.98810547 12.05798828 1.03871094 12.05347656 0.06054688 12.04882812 C-2.29303065 12.0370011 -4.64648477 12.02052025 -7 12 C-7 11.67 -7 11.34 -7 11 C-6.37351562 10.95101562 -5.74703125 10.90203125 -5.1015625 10.8515625 C-4.28429687 10.77679688 -3.46703125 10.70203125 -2.625 10.625 C-1.81289063 10.55539063 -1.00078125 10.48578125 -0.1640625 10.4140625 C2.20334191 10.17107412 2.20334191 10.17107412 4 8 C4.99 8 5.98 8 7 8 C7 7.01 7 6.02 7 5 C4.36 5 1.72 5 -1 5 C-0.67 3.35 -0.34 1.7 0 0 Z " fill="#5A2660" transform="translate(22,34)"/>
<path d="M0 0 C0.3125 2.5 0.3125 2.5 0 5 C-2 7 -2 7 -4.625 7.125 C-5.40875 7.08375 -6.1925 7.0425 -7 7 C-7.33 5.68 -7.66 4.36 -8 3 C-9.98 3.99 -9.98 3.99 -12 5 C-12 5.66 -12 6.32 -12 7 C-13.98 7 -15.96 7 -18 7 C-18 4.36 -18 1.72 -18 -1 C-4.09550562 -2.73033708 -4.09550562 -2.73033708 0 0 Z " fill="#F9F1E1" transform="translate(162,52)"/>
<path d="M0 0 C0.33 0 0.66 0 1 0 C1.02895225 3.29164829 1.0467823 6.58326399 1.0625 9.875 C1.07087891 10.81214844 1.07925781 11.74929687 1.08789062 12.71484375 C1.09111328 13.61074219 1.09433594 14.50664063 1.09765625 15.4296875 C1.10289307 16.25710449 1.10812988 17.08452148 1.11352539 17.93701172 C1 20 1 20 0 22 C0.99 22 1.98 22 3 22 C3 22.66 3 23.32 3 24 C2.01 24 1.02 24 0 24 C0 26.31 0 28.62 0 31 C-0.66 31 -1.32 31 -2 31 C-2 29.02 -2 27.04 -2 25 C-3.98 25 -5.96 25 -8 25 C-8 26.65 -8 28.3 -8 30 C-8.66 30.33 -9.32 30.66 -10 31 C-10.02712066 29.56260487 -10.04645067 28.12506137 -10.0625 26.6875 C-10.07410156 25.88699219 -10.08570312 25.08648437 -10.09765625 24.26171875 C-10 22 -10 22 -9 19 C-7.02 18.67 -5.04 18.34 -3 18 C-1.33318124 11.99945246 -0.48320848 6.2054142 0 0 Z " fill="#F3DAC0" transform="translate(137,28)"/>
<path d="M0 0 C1.98 0 3.96 0 6 0 C6 6.27 6 12.54 6 19 C4.02 19 2.04 19 0 19 C0 12.73 0 6.46 0 0 Z " fill="#EF872C" transform="translate(128,27)"/>
<path d="M0 0 C2.64257163 3.08935693 4.51401219 5.66217923 5.6875 9.5625 C5.91824219 10.30628906 6.14898437 11.05007812 6.38671875 11.81640625 C6.58910156 12.53699219 6.79148437 13.25757813 7 14 C7.31710938 15.05767578 7.31710938 15.05767578 7.640625 16.13671875 C8.12572696 18.65186694 7.29835233 19.86153734 6 22 C3.65575067 21.6241288 2.3329569 21.34658672 0.6640625 19.609375 C-3.04176119 12.97790103 -1.61737107 7.16888799 0 0 Z " fill="#EE8631" transform="translate(113,11)"/>
<path d="M0 0 C3 0 3 0 6 1 C7.99396257 3.66083969 10 6.61242325 10 10 C8.54207116 10.05399736 7.08357288 10.09279177 5.625 10.125 C4.81289063 10.14820313 4.00078125 10.17140625 3.1640625 10.1953125 C1 10 1 10 -1 8 C-2.98 8.99 -2.98 8.99 -5 10 C-3.35 6.7 -1.7 3.4 0 0 Z " fill="#68396D" transform="translate(46,29)"/>
<path d="M0 0 C2.3125 0.8125 2.3125 0.8125 3.3125 2.8125 C3.38200541 4.35273996 3.39702357 5.89584988 3.375 7.4375 C3.36597656 8.25476562 3.35695313 9.07203125 3.34765625 9.9140625 C3.33605469 10.54054688 3.32445313 11.16703125 3.3125 11.8125 C1.6625 11.8125 0.0125 11.8125 -1.6875 11.8125 C-1.6875 10.1625 -1.6875 8.5125 -1.6875 6.8125 C-2.0175 8.4625 -2.3475 10.1125 -2.6875 11.8125 C-3.6775 11.4825 -4.6675 11.1525 -5.6875 10.8125 C-6.0175 8.1725 -6.3475 5.5325 -6.6875 2.8125 C-4.2961605 0.59829676 -3.32534138 -0.23200056 0 0 Z " fill="#F6E2CE" transform="translate(111.6875,47.1875)"/>
<path d="M0 0 C4.62 0 9.24 0 14 0 C14 3.63 14 7.26 14 11 C13.34 11 12.68 11 12 11 C12 8.03 12 5.06 12 2 C11.01 2.495 11.01 2.495 10 3 C6.13938967 4.28687011 3.05849717 4.13757618 -1 4 C-0.67 2.68 -0.34 1.36 0 0 Z " fill="#6C3F71" transform="translate(22,34)"/>
<path d="M0 0 C1.98 0.66 3.96 1.32 6 2 C5.67 3.65 5.34 5.3 5 7 C7.64 7 10.28 7 13 7 C13 7.66 13 8.32 13 9 C11.04196493 9.05389087 9.08351091 9.09274217 7.125 9.125 C6.03445312 9.14820313 4.94390625 9.17140625 3.8203125 9.1953125 C1 9 1 9 -1 7 C-1.1875 3.9375 -1.1875 3.9375 -1 1 C-0.67 0.67 -0.34 0.34 0 0 Z " fill="#F0EBF1" transform="translate(16,32)"/>
<path d="M0 0 C1.99954746 -0.04254356 4.00041636 -0.04080783 6 0 C7 1 7 1 7.1875 3.4375 C7 6 7 6 5 8 C2.375 8.125 2.375 8.125 0 8 C0 5.36 0 2.72 0 0 Z " fill="#EAB37C" transform="translate(155,51)"/>
<path d="M0 0 C1.99954746 -0.04254356 4.00041636 -0.04080783 6 0 C7 1 7 1 7.0625 4.0625 C7.041875 5.031875 7.02125 6.00125 7 7 C5.0085944 7.38133299 3.00720923 7.71325582 1 8 C0 7 0 7 -0.0625 3.4375 C-0.041875 2.303125 -0.02125 1.16875 0 0 Z " fill="#6B476F" transform="translate(47,51)"/>
<path d="M0 0 C1.98 0 3.96 0 6 0 C5.712641 3.44830801 5.23781351 4.76218649 2.75 7.25 C0.03650929 8.97676682 -1.83529243 9.63831913 -5 10 C-4.360625 9.0925 -3.72125 8.185 -3.0625 7.25 C-1.38571047 4.60778619 -0.46310002 3.0101501 0 0 Z " fill="#E7672D" transform="translate(117,36)"/>
<path d="M0 0 C0.99 0.66 1.98 1.32 3 2 C3.3984375 4.4609375 3.3984375 4.4609375 3.375 7.375 C3.38273437 8.33148438 3.39046875 9.28796875 3.3984375 10.2734375 C2.95022038 13.34064874 2.04380946 14.71828679 0 17 C-0.38955051 14.73161744 -0.76119129 12.46015313 -1.125 10.1875 C-1.33382812 8.92292969 -1.54265625 7.65835937 -1.7578125 6.35546875 C-2 3 -2 3 0 0 Z " fill="#A23754" transform="translate(110,7)"/>
<path d="M0 0 C0.33 0 0.66 0 1 0 C1.19335938 0.62648437 1.38671875 1.25296875 1.5859375 1.8984375 C1.84632812 2.71570312 2.10671875 3.53296875 2.375 4.375 C2.63023438 5.18710937 2.88546875 5.99921875 3.1484375 6.8359375 C3.89854283 9.16459185 3.89854283 9.16459185 6 11 C2.53494217 11.39600661 1.21827567 11.14386351 -1.75 9.1875 C-4 7 -4 7 -5 4 C-4.34 3.34 -3.68 2.68 -3 2 C-2.01 2 -1.02 2 0 2 C0 1.34 0 0.68 0 0 Z " fill="#72408C" transform="translate(104,35)"/>
<path d="M0 0 C0.99 0 1.98 0 3 0 C3.33 0.66 3.66 1.32 4 2 C4.33 1.34 4.66 0.68 5 0 C5.99 0 6.98 0 8 0 C8 2.31 8 4.62 8 7 C5.36 7 2.72 7 0 7 C0 4.69 0 2.38 0 0 Z " fill="#E89B57" transform="translate(114,51)"/>
<path d="M0 0 C0.66 0 1.32 0 2 0 C2.144375 0.763125 2.28875 1.52625 2.4375 2.3125 C2.9632594 5.08172908 2.9632594 5.08172908 4 8 C3.0625 10.1875 3.0625 10.1875 2 12 C1.01 11.67 0.02 11.34 -1 11 C-1.144375 10.195625 -1.28875 9.39125 -1.4375 8.5625 C-1.74135249 6.07896294 -1.74135249 6.07896294 -3 5 C-1.125 1.125 -1.125 1.125 0 0 Z " fill="#F6861A" transform="translate(117,21)"/>
<path d="M0 0 C0.33 0.66 0.66 1.32 1 2 C6.61 2.33 12.22 2.66 18 3 C18 3.33 18 3.66 18 4 C13.05 4 8.1 4 3 4 C2.67 4.99 2.34 5.98 2 7 C0.02 7 -1.96 7 -4 7 C-2.68 4.69 -1.36 2.38 0 0 Z " fill="#6E4373" transform="translate(41,39)"/>
<path d="M0 0 C0.66 0 1.32 0 2 0 C2.66 0.99 3.32 1.98 4 3 C4.33 2.01 4.66 1.02 5 0 C5.66 0 6.32 0 7 0 C7 2.97 7 5.94 7 9 C6.34 9 5.68 9 5 9 C4.34 8.01 3.68 7.02 3 6 C2.67 6.99 2.34 7.98 2 9 C1.34 9 0.68 9 0 9 C0 6.03 0 3.06 0 0 Z " fill="#7A587D" transform="translate(66,50)"/>
<path d="M0 0 C2.625 0.375 2.625 0.375 5 1 C4.67 1.66 4.34 2.32 4 3 C2.68 2.67 1.36 2.34 0 2 C0 3.65 0 5.3 0 7 C0.66 6.67 1.32 6.34 2 6 C2 5.34 2 4.68 2 4 C3.32 4.33 4.64 4.66 6 5 C6 5.99 6 6.98 6 8 C3.125 8.625 3.125 8.625 0 9 C-2 7 -2 7 -2.25 4.5 C-2 2 -2 2 0 0 Z " fill="#735677" transform="translate(80,50)"/>
<path d="M0 0 C0.66 0.33 1.32 0.66 2 1 C2 1.66 2 2.32 2 3 C2.61488281 2.96519531 3.22976562 2.93039063 3.86328125 2.89453125 C5.07564453 2.85392578 5.07564453 2.85392578 6.3125 2.8125 C7.51326172 2.76029297 7.51326172 2.76029297 8.73828125 2.70703125 C11.47851584 3.06198392 12.29171079 3.89366282 14 6 C11.54159395 6.02691685 9.08348118 6.04679802 6.625 6.0625 C5.92632812 6.07087891 5.22765625 6.07925781 4.5078125 6.08789062 C-0.7734375 6.11328125 -0.7734375 6.11328125 -3 5 C-1.125 1.125 -1.125 1.125 0 0 Z " fill="#531B5A" transform="translate(45,36)"/>
<path d="M0 0 C0.33 0 0.66 0 1 0 C1.02895976 3.12498063 1.04678483 6.2499269 1.0625 9.375 C1.07087891 10.26445313 1.07925781 11.15390625 1.08789062 12.0703125 C1.09111328 12.92109375 1.09433594 13.771875 1.09765625 14.6484375 C1.10289307 15.43395996 1.10812988 16.21948242 1.11352539 17.02880859 C1 19 1 19 0 21 C-1.98 21 -3.96 21 -6 21 C-6 20.67 -6 20.34 -6 20 C-4.35 20 -2.7 20 -1 20 C-1.66 18.35 -2.32 16.7 -3 15 C-2.34 14.67 -1.68 14.34 -1 14 C-0.52998967 10.72444392 -0.52998967 10.72444392 -0.375 6.9375 C-0.26285156 5.00197266 -0.26285156 5.00197266 -0.1484375 3.02734375 C-0.09945312 2.02832031 -0.05046875 1.02929688 0 0 Z " fill="#F1EBF2" transform="translate(67,26)"/>
<path d="M0 0 C1.98 0 3.96 0 6 0 C6 2.64 6 5.28 6 8 C4.35 6.68 2.7 5.36 1 4 C0.67 5.32 0.34 6.64 0 8 C0 5.36 0 2.72 0 0 Z " fill="#7B5B7E" transform="translate(25,51)"/>
<path d="M0 0 C4.85077588 1.11940982 7.777893 2.1334716 11 6 C10.34 6 9.68 6 9 6 C8.34 7.32 7.68 8.64 7 10 C7 8.68 7 7.36 7 6 C6.01 5.67 5.02 5.34 4 5 C3.67 4.34 3.34 3.68 3 3 C0.47266765 2.34444881 0.47266765 2.34444881 -2 2 C-1.34 1.34 -0.68 0.68 0 0 Z " fill="#E7D5D5" transform="translate(110,45)"/>
<path d="M0 0 C1.98 0 3.96 0 6 0 C4.68 0.33 3.36 0.66 2 1 C2 1.66 2 2.32 2 3 C3.32 3.33 4.64 3.66 6 4 C4.68 4 3.36 4 2 4 C2 4.66 2 5.32 2 6 C3.32 6 4.64 6 6 6 C6 6.66 6 7.32 6 8 C4.02 8 2.04 8 0 8 C0 5.36 0 2.72 0 0 Z " fill="#E19D5B" transform="translate(144,51)"/>
<path d="M0 0 C0.99 0 1.98 0 3 0 C3.66 2.31 4.32 4.62 5 7 C2.69 7 0.38 7 -2 7 C-1.125 1.125 -1.125 1.125 0 0 Z " fill="#79587D" transform="translate(38,51)"/>
<path d="M0 0 C2.64 0 5.28 0 8 0 C7.67 1.65 7.34 3.3 7 5 C6.01 5 5.02 5 4 5 C3.67 4.34 3.34 3.68 3 3 C1.68 3.33 0.36 3.66 -1 4 C-0.67 2.68 -0.34 1.36 0 0 Z " fill="#57215D" transform="translate(48,27)"/>
<path d="M0 0 C2.50037734 2.17424117 3.43628586 3.73045798 4 7 C1.69 7 -0.62 7 -3 7 C-1.125 2.25 -1.125 2.25 0 0 Z " fill="#F2EDF2" transform="translate(51,31)"/>
<path d="M0 0 C3.01563895 2.74148996 4.85210625 5.21344355 5.1953125 9.359375 C5.16050781 10.54273438 5.16050781 10.54273438 5.125 11.75 C5.10695313 12.54921875 5.08890625 13.3484375 5.0703125 14.171875 C5.03550781 15.07679687 5.03550781 15.07679687 5 16 C4.67 16 4.34 16 4 16 C4 13.69 4 11.38 4 9 C3.01 9.33 2.02 9.66 1 10 C1.020625 9.236875 1.04125 8.47375 1.0625 7.6875 C1.12942841 4.89814214 1.12942841 4.89814214 0 2 C0 1.34 0 0.68 0 0 Z " fill="#EB9B45" transform="translate(119,22)"/>
<path d="M0 0 C0.66 0.66 1.32 1.32 2 2 C1.3125 4.375 1.3125 4.375 0 7 C-2.625 8.3125 -2.625 8.3125 -5 9 C-5 5 -5 5 -2.5 2.25 C-1.675 1.5075 -0.85 0.765 0 0 Z " fill="#632B71" transform="translate(104,30)"/>
<path d="M0 0 C0.66 0 1.32 0 2 0 C2 2.31 2 4.62 2 7 C3.32 7 4.64 7 6 7 C6 7.66 6 8.32 6 9 C4.02 9 2.04 9 0 9 C0 6.03 0 3.06 0 0 Z " fill="#E5A469" transform="translate(97,50)"/>
<path d="M0 0 C0.33 0 0.66 0 1 0 C1.33 3.3 1.66 6.6 2 10 C1.01 9.34 0.02 8.68 -1 8 C-1 7.34 -1 6.68 -1 6 C-1.66 6 -2.32 6 -3 6 C-1.125 1.125 -1.125 1.125 0 0 Z " fill="#72295B" transform="translate(108,11)"/>
<path d="M0 0 C0.66 0.33 1.32 0.66 2 1 C1.67 4.3 1.34 7.6 1 11 C0.67 11 0.34 11 0 11 C-0.144375 10.2575 -0.28875 9.515 -0.4375 8.75 C-0.90187492 6.47972261 -1.41863569 4.24240521 -2 2 C-3.65 2 -5.3 2 -7 2 C-7 1.67 -7 1.34 -7 1 C-5.5459375 1.0309375 -5.5459375 1.0309375 -4.0625 1.0625 C-1.12534105 1.35618499 -1.12534105 1.35618499 0 0 Z " fill="#D5C8D6" transform="translate(97,25)"/>
<path d="M0 0 C0.99 1.32 1.98 2.64 3 4 C2.67 4.66 2.34 5.32 2 6 C-0.5625 6.625 -0.5625 6.625 -3 7 C-1.125 2.25 -1.125 2.25 0 0 Z " fill="#612D64" transform="translate(104,17)"/>
<path d="M0 0 C1.98 0 3.96 0 6 0 C5.67 0.99 5.34 1.98 5 3 C4.01 2.67 3.02 2.34 2 2 C2 2.66 2 3.32 2 4 C2.66 4.33 3.32 4.66 4 5 C2.68 5 1.36 5 0 5 C0 3.35 0 1.7 0 0 Z " fill="#F1EBF1" transform="translate(80,52)"/>
<path d="M0 0 C0.99 0.33 1.98 0.66 3 1 C2.67 1.66 2.34 2.32 2 3 C1.34 3 0.68 3 0 3 C-0.33 3.66 -0.66 4.32 -1 5 C-1 4.34 -1 3.68 -1 3 C-3.64 3 -6.28 3 -9 3 C-9 2.67 -9 2.34 -9 2 C-6.94921875 1.77213542 -4.8984375 1.54427083 -2.84765625 1.31640625 C-0.98859771 1.18113386 -0.98859771 1.18113386 0 0 Z " fill="#764C79" transform="translate(30,36)"/>
<path d="M0 0 C1.32 0.33 2.64 0.66 4 1 C4 1.99 4 2.98 4 4 C2.02 4.33 0.04 4.66 -2 5 C-1.34 3.35 -0.68 1.7 0 0 Z " fill="#8B6F8D" transform="translate(82,54)"/>
<path d="M0 0 C1.32 0.33 2.64 0.66 4 1 C3.67 2.32 3.34 3.64 3 5 C2.01 5 1.02 5 0 5 C0 3.35 0 1.7 0 0 Z " fill="#EADDEB" transform="translate(49,52)"/>
<path d="M0 0 C0.99 0 1.98 0 3 0 C3.33 1.32 3.66 2.64 4 4 C2.02 4 0.04 4 -2 4 C-1.34 2.68 -0.68 1.36 0 0 Z " fill="#623467" transform="translate(62,42)"/>
<path d="M0 0 C1.98 0 3.96 0 6 0 C5.67 1.65 5.34 3.3 5 5 C4.67 4.34 4.34 3.68 4 3 C3.01 3 2.02 3 1 3 C0.67 2.01 0.34 1.02 0 0 Z " fill="#EE8029" transform="translate(117,36)"/>
<path d="M0 0 C0.66 0.66 1.32 1.32 2 2 C-0.375 3.5625 -0.375 3.5625 -3 5 C-3.66 4.67 -4.32 4.34 -5 4 C-5 3.34 -5 2.68 -5 2 C-3.35 1.34 -1.7 0.68 0 0 Z " fill="#E9DEEC" transform="translate(107,46)"/>
</svg>
